<?xml version="1.0" encoding="iso-8859-1"?>
<!-- Generator: Adobe Illustrator 19.0.0, SVG Export Plug-In . SVG Version: 6.00 Build 0)  -->
<svg version="1.1" id="Layer_1" xmlns="http://www.w3.org/2000/svg" xmlns:xlink="http://www.w3.org/1999/xlink" x="0px" y="0px"
	 viewBox="0 0 512.001 512.001" style="enable-background:new 0 0 512.001 512.001;" xml:space="preserve">
<path d="M487.695,88.534c-11.558-11.56-25.986-19.299-41.684-22.545c-3.246-15.698-10.986-30.125-22.545-41.683
	c-32.407-32.41-84.859-32.406-117.264,0c-29.163,29.162-31.642,73.808-9.759,105.557L129.853,296.454
	c-32.279-22.167-76.881-18.918-105.546,9.749c-32.41,32.408-32.406,84.859,0,117.264c11.558,11.558,25.987,19.299,41.684,22.545
	c3.246,15.697,10.986,30.125,22.545,41.683c32.407,32.41,84.859,32.405,117.264,0c28.666-28.665,31.917-73.268,9.749-105.546
	l166.602-166.602c32.28,22.169,76.882,18.916,105.546-9.749C520.104,173.39,520.1,120.939,487.695,88.534z"/>
<g>
</g>
<g>
</g>
<g>
</g>
<g>
</g>
<g>
</g>
<g>
</g>
<g>
</g>
<g>
</g>
<g>
</g>
<g>
</g>
<g>
</g>
<g>
</g>
<g>
</g>
<g>
</g>
<g>
</g>
</svg>
